<?xml version="1.0" encoding="utf-8"?>
<!-- Generator: Adobe Illustrator 21.0.0, SVG Export Plug-In . SVG Version: 6.00 Build 0)  -->
<svg version="1.1" id="Layer_1" xmlns="http://www.w3.org/2000/svg" xmlns:xlink="http://www.w3.org/1999/xlink" x="0px" y="0px"
	 viewBox="0 0 576 198.5" style="enable-background:new 0 0 576 198.5;" xml:space="preserve">
<style type="text/css">
	.st0{fill:#FCC216;}
</style>
<g>
	<g>
		<g>
			<g>
				<path d="M389.8,177.7c1.5,0,3,0,4.4,0c0,6.8,0,13.6,0,20.4c-1.5,0-2.9,0-4.4,0c0-0.4,0-0.8,0-1.4c-0.7,1-1.6,1.5-2.7,1.7
					c-2.6,0.5-5-0.6-6.5-2.9c-1.9-3-1.2-7.1,1.6-9.2c1.9-1.5,5.4-1.9,7.6,0.3C389.8,183.6,389.8,180.6,389.8,177.7z M387.1,194.6
					c1.7,0,2.9-1.1,2.9-2.8s-1.2-2.9-2.9-2.9c-1.6,0-2.9,1.2-2.9,2.9C384.2,193.4,385.4,194.6,387.1,194.6z"/>
				<path d="M349.2,185.5c1.5,0,2.9,0,4.4,0c0,0.2,0,0.4,0,0.6c0,2.3,0,4.6,0,6.9c0,0.8,0.3,1.5,1,1.8c0.9,0.4,1.8,0.4,2.6-0.2
					c0.7-0.5,0.7-1.4,0.8-2.2c0-2.1,0-4.2,0-6.3c0-0.2,0-0.4,0-0.6c1.5,0,2.9,0,4.4,0c0,0.2,0,0.3,0,0.5c0,2.3,0,4.7,0,7
					c0,3.2-1.6,5-4.7,5.4c-1.6,0.2-3.1,0.2-4.7-0.2c-2.5-0.6-3.8-2-3.9-4.6C349.1,190.9,349.2,188.2,349.2,185.5z"/>
				<path d="M372.9,177.7c1.5,0,2.9,0,4.4,0c0,6.8,0,13.6,0,20.4c-1.4,0-2.9,0-4.4,0C372.9,191.3,372.9,184.5,372.9,177.7z"/>
				<path d="M369.9,198.1c-1.4,0-2.8,0-4.1,0c-0.1,0-0.2,0-0.3,0c0-4.2,0-8.4,0-12.6c1.5,0,2.9,0,4.4,0
					C369.9,189.7,369.9,193.8,369.9,198.1z"/>
				<path d="M396.5,195.2c0-1.6,1.3-2.9,2.9-2.9s2.9,1.3,2.9,2.9c0,1.5-1.3,2.9-2.9,2.9C397.7,198.1,396.5,196.8,396.5,195.2z"/>
				<path d="M367.7,178.1c1.4,0,2.5,1.1,2.5,2.5s-1.1,2.5-2.5,2.5c-1.3,0-2.5-1.1-2.5-2.5C365.2,179.2,366.3,178.1,367.7,178.1z"/>
			</g>
			<path d="M346.8,192.4c-0.1-2-1-3.4-2.7-4c-0.3-0.1-0.6-0.2-1-0.3c1.1-0.6,1.8-1.5,2-2.8c0.1-0.6,0.1-1.3,0-1.9
				c-0.2-1.8-1.1-3.1-2.9-3.6c-0.8-0.2-1.7-0.4-2.6-0.4c-2.2,0-4.3,0-6.5,0c-0.1,0-0.3,0-0.4,0c0,6.2,0,12.3,0,18.6
				c3.1-0.1,6.1,0,9.2-0.2C344.8,197.7,347,195.9,346.8,192.4z M337.3,182.7c0,0,3.2-0.5,3.2,1.8s-3.2,1.8-3.2,1.8V182.7z
				 M341.6,192.5L341.6,192.5c0,2.3-2.8,2.1-2.8,2.1h-1.4l0,0l0,0v-4.2l0,0l0,0h1.4C338.7,190.4,341.6,190.1,341.6,192.5
				L341.6,192.5L341.6,192.5L341.6,192.5z"/>
		</g>
		<g>
			<g>
				<path d="M473.6,191.2c2.2-2,4.2-3.9,6.4-5.9h-6l-0.3,0.2c0,0,0,0-0.1,0c-0.5,0.5-1,1-1.5,1.5l-0.1,0.1l0,0
					c-0.8,0.8-1.6,1.5-2.4,2.3c-0.1,0.1-0.2,0.2-0.4,0.4c0-4.2,0-8.2,0-12.2c-1.5,0-2.9,0-4.4,0c0,6.7,0,13.4,0,20.1
					c1.5,0,2.9,0,4.4,0c0-1.7,0-3.3,0-5c0.1,0.1,0.2,0.2,0.3,0.3c0.9,1,1.9,2,2.8,2.9l0,0l1.7,1.8h6.4
					C478.3,195.7,475.9,193.4,473.6,191.2z"/>
				<path d="M445.7,186.5c-2.1-2.1-5.7-2-7.8-0.1c-1.6,1.5-2.3,3.4-2.2,5.5c0.1,2.3,1.1,4.1,2.9,5.3c1.7,1.1,3.6,1.3,5.4,0.6
					c0.6-0.3,1.2-0.8,1.7-1.2c0,0.4,0,0.8,0,1.2c1.5,0,2.9,0,4.4,0c0-4.2,0-8.3,0-12.4c-1.5,0-2.9,0-4.4,0
					C445.7,185.8,445.7,186.1,445.7,186.5z M443,194.4c-1.7,0-2.8-1.1-2.8-2.8s1.2-2.8,2.8-2.8c1.7,0,2.9,1.2,2.9,2.8
					C445.9,193.3,444.7,194.4,443,194.4z"/>
				<path d="M412.2,183.6c1.3,0,2.6,0,4,0c0,4.8,0,9.5,0,14.3c1.6,0,3.2,0,4.8,0c0-4.8,0-9.5,0-14.3c1.3,0,2.6,0,3.9,0
					c0-1.4,0-2.7,0-4c-4.2,0-8.4,0-12.6,0C412.2,180.8,412.2,182.2,412.2,183.6z"/>
				<path d="M462.1,185.6c0,0-0.6-0.3-1.4-0.5c-0.9-0.2-1.7-0.2-2.6-0.1c-3.6,0.4-6.7,3.7-5.7,8.3c0.8,3.6,4.8,5.6,8.4,4.7
					c0.8-0.2,1.3-0.5,1.3-0.5v-1.1c0-0.6,0-1.2,0-1.8v-0.8c0,0-0.2,0.1-0.4,0.3c-1.6,0.9-3.3,0.5-4.2-0.4c-0.9-1-1-2.8-0.1-4
					c1-1.3,2.5-1.5,4.7-0.4v-2.7L462.1,185.6L462.1,185.6z"/>
				<path d="M430,187.3c0-0.6,0-1.3,0-1.9c-1.5,0-2.9,0-4.4,0c0,4.2,0,8.3,0,12.4c1.5,0,2.9,0,4.4,0c0-0.2,0-0.5,0-0.7
					c0-1.8,0-3.7,0.1-5.5c0.1-1.7,1.2-2.7,2.9-2.6c0.7,0,1.3,0.1,1.9,0.2c0-1.3,0-2.7,0-4.1C432.9,185.1,431.2,185.5,430,187.3z"/>
			</g>
		</g>
		<g>
			<g>
				<path d="M507.2,190.3c1.9,2.5,3.8,4.9,5.7,7.5c-0.2,0-0.4,0-0.5,0c-1.7,0-3.3,0-5,0c-0.3,0-0.5-0.1-0.6-0.3c-1.3-2-2.6-4-3.8-6
					c-0.1-0.2-0.2-0.4-0.5-0.7c0,2.4,0,4.7,0,7c-1.6,0-3.2,0-4.8,0c0-6.1,0-12.2,0-18.3c0.1,0,0.2,0,0.4,0c2.3,0,4.5,0,6.8,0
					c0.9,0,1.8,0.1,2.7,0.4c2,0.7,3.3,2,3.6,4.2c0.2,1.9,0,3.6-1.5,5c-0.5,0.5-1.3,0.8-2,1.1C507.5,190.3,507.3,190.3,507.2,190.3z
					 M502.5,183.2c0,1.5,0,3,0,4.5c0.8,0.1,1.9,0,2.5-0.3c0.8-0.4,1.2-1,1.2-2s-0.4-1.6-1.2-1.9
					C504.1,183.1,503.3,183.1,502.5,183.2z"/>
				<path d="M549.5,197.8c-1.5,0-2.9,0-4.4,0c0-0.4,0-0.8,0-1.2c-0.5,0.4-1,0.9-1.6,1.2c-1.7,0.8-3.4,0.7-5-0.2
					c-2.2-1.2-3.3-3-3.5-5.5c-0.1-2.2,0.5-4.1,2.2-5.6c2.1-1.9,5.7-2.1,7.8,0.1c0-0.4,0-0.7,0-1.1c1.5,0,3,0,4.5,0
					C549.5,189.5,549.5,193.6,549.5,197.8z M539.6,191.6c0,1.7,1.1,2.8,2.8,2.8s2.9-1.1,2.9-2.8s-1.2-2.8-2.9-2.8
					C540.8,188.8,539.6,189.9,539.6,191.6z"/>
				<path d="M526.6,192.3c-3.2,0-6.2,0-9.2,0c-0.2,1.6,0.8,2.6,2.2,2.8c1,0.1,1.8-0.1,2.5-1c0.1-0.1,0.2-0.2,0.3-0.2
					c1.3,0,2.6,0,4,0c-0.2,1.1-0.7,1.9-1.4,2.6c-1.1,1-2.4,1.5-3.8,1.7c-1.5,0.1-3,0.1-4.4-0.5c-2.5-1.1-3.8-3-3.9-5.8
					c-0.2-3.5,1.8-6.1,5.3-6.8c1.5-0.3,2.9-0.2,4.3,0.3c2.4,0.8,3.6,2.6,4,5.1C526.5,191,526.6,191.6,526.6,192.3z M517.4,189.8
					c1.7,0,3.4,0,5,0c-0.3-1.2-1.4-2-2.6-1.9C518.5,187.9,517.5,188.7,517.4,189.8z"/>
				<path d="M528.6,177.7c1.4,0,2.9,0,4.3,0c0,6.7,0,13.4,0,20.1c-1.4,0-2.9,0-4.3,0C528.6,191.1,528.6,184.4,528.6,177.7z"/>
			</g>
			<path d="M568.8,197.8L568.8,197.8L568.8,197.8c-1.8-1.9-4.5-4.9-6.3-6.8c1.7-1.9,3.4-3.8,5.2-5.7c-1.3,0-2.4,0-3.6,0H562
				l-1.3,1.4l0,0c-0.3,0.4-0.7,0.8-1,1.1c-0.3-0.4-0.7-0.8-1-1.2l-1.2-1.4h-1.7c-1,0-2,0-3,0l0,0h-0.1h-0.9h-0.1
				c1.7,1.9,3.4,3.8,5.1,5.7c-2,2.2-4.2,4.5-6.3,6.8c0.3,0,0.6,0,0.8,0h0.3h4.8l3.1-3.7c0.7,0.8,1.3,1.5,2,2.3l0,0l0.3,0.4
				c0.2,0.2,0.4,0.4,0.6,0.7l0.1,0.1l0.2,0.3h4.5L568.8,197.8C568.7,197.8,568.8,197.8,568.8,197.8L568.8,197.8z"/>
		</g>
		<path d="M482.5,195.3c0-1.5,1.1-2.6,2.6-2.6c1.4,0,2.6,1.2,2.6,2.6c0,1.4-1.2,2.6-2.6,2.6C483.6,197.9,482.5,196.7,482.5,195.3z"
			/>
		<path d="M570.8,195.3c0-1.5,1.1-2.6,2.6-2.6c1.4,0,2.6,1.2,2.6,2.6c0,1.4-1.2,2.6-2.6,2.6C572,197.9,570.8,196.7,570.8,195.3z"/>
	</g>
	<g>
		<path d="M254.8,1.2v168.2h47.9c0,0,24.5-36.7,24.5-88.8s-25-79.4-25-79.4L254.8,1.2L254.8,1.2z M291.2,147.4
			c-0.3,1-1.2,1.6-2.3,1.6h-12.1V22.9l10.6-0.2c0.9,0,1.7,0.5,2.2,1.3c2.6,5,11.9,25.1,11.9,57.3
			C301.6,113.3,293.4,141.2,291.2,147.4z"/>
		<path d="M534.4,150.3l1-149.3c0,0-8.8-0.1-15.6,0.1c-3.3,0,0.4-0.1-7.5-0.2V1c-0.1,0-0.1,0-0.1,0.1l-0.8,168.8h64.1v-19.6H534.4z"
			/>
		<polygon points="236.3,1 215.2,1 215.1,118.6 213.6,114.8 190.7,0.9 162.2,1.1 162.2,8.4 162.2,169.5 183.4,169.5 183.4,64.3 
			205.9,169.7 233.6,169.7 233.5,169.5 237.6,169.5 		"/>
		<polygon points="110.7,93.8 139.5,93.5 139.5,72.5 110.7,72.7 110.7,22.6 123.2,22.6 123.2,22.6 148,22.6 148,0.8 123.2,0.8 
			123.2,1 87.3,1 87.6,2.9 87.6,22.6 87.6,169.5 149.2,169.5 149.2,149 110.7,149 		"/>
		<path d="M35.6,0.7c-28,0-35.6,14-35.6,14v140.8c0,0,9.6,14,38.5,14.4c27,0.4,33.5-14.4,33.5-14.4V128H49.2v13.2l-12.3,9.4l-12-9.5
			V30.5l12.9-9.9l12,9.4v10.6L72.4,41V13.1C72.4,13.1,63.7,0.7,35.6,0.7z"/>
		<path d="M458.8,0c-27.3,0-36.5,15.9-36.5,15.9v136.9c0,0,11.5,17,37.9,17c26.3,0,33.1-17.4,33.1-17.4V29.1l0,0l0.2-14.6
			C493.5,14.4,486.2,0,458.8,0z M470.2,31.9l-1,111l-11.2,8.5l-11.5-9V30l12.4-9.4l11.4,8.9L470.2,31.9L470.2,31.9z"/>
		<path d="M391.8,93.1c1.6-2.1,16.1-20.5,16.1-43.4c0-35.3-16.6-48.6-16.6-48.6L339.9,1l0.1,3v165.6h22.6V96.7h7.8l16.9,72.1
			l0.2,0.4l0.2,0.1h27.4v-19.2H407L391.8,93.1z M376,76h-13.3V22.8h10.6c1.4,0,2.8,0.6,3.8,1.7c2.6,3,8.1,8.6,8.1,24
			C385.2,66.6,376,76,376,76z"/>
	</g>
	<rect y="177.7" class="st0" width="322.8" height="20.6"/>
</g>
<path d="M565.2,0c-6,0-10.8,4.8-10.8,10.8s4.8,10.8,10.8,10.8S576,16.8,576,10.8S571.2,0,565.2,0 M565.2,20.6
	c-5.4,0-9.8-4.4-9.8-9.8s4.4-9.8,9.8-9.8c5.4,0,9.8,4.4,9.8,9.8S570.6,20.6,565.2,20.6 M569.4,15.1V14c0-0.8-0.2-1.4-0.5-1.9
	s-0.9-0.9-1.7-1c0.7-0.2,1.2-0.6,1.6-1.2c0.4-0.5,0.6-1.1,0.6-1.8c0-1.1-0.4-2-1.1-2.6c-0.7-0.6-1.8-0.9-3.1-0.9h-4.3v12.6h1v-5.7
	h3.5c0.9,0,1.6,0.2,2.1,0.7c0.5,0.4,0.7,1.1,0.7,1.8v1.1c0,0.4,0,0.8,0.1,1.2s0.2,0.7,0.4,0.9h1.1V17c-0.2-0.2-0.4-0.5-0.5-0.8
	C569.4,15.9,569.4,15.5,569.4,15.1 M565.1,10.6H562V5.5h3.2c1.1,0,1.8,0.2,2.4,0.7c0.5,0.4,0.8,1.1,0.8,1.9s-0.3,1.4-0.8,1.8
	C567,10.4,566.2,10.6,565.1,10.6"/>
</svg>
