<svg width="1304" height="638" viewBox="0 0 1304 638" fill="none" xmlns="http://www.w3.org/2000/svg">
<rect width="1304" height="638" fill="#F2F2F7"/>
<rect x="175" y="327" width="955" height="143" rx="66.5" fill="#1F3C6A" fill-opacity="0.15"/>
<rect x="328" y="356" width="765" height="84" rx="42" fill="white"/>
<path d="M368.839 399.729C368.956 397.623 370.243 395.985 372.427 395.985C374.923 395.985 375.976 397.662 375.976 399.807V411H381.163V398.91C381.163 394.698 378.901 391.305 374.026 391.305C372.193 391.305 370.087 391.929 368.839 393.411V382.764H363.652V411H368.839V399.729ZM391.852 386.079H387.172V388.77C387.172 390.486 386.236 391.812 384.208 391.812H383.233V396.414H386.704V405.345C386.704 409.05 389.044 411.273 392.788 411.273C394.309 411.273 395.245 411 395.713 410.805V406.515C395.44 406.593 394.738 406.671 394.114 406.671C392.632 406.671 391.852 406.125 391.852 404.448V396.414H395.713V391.812H391.852V386.079ZM405.459 386.079H400.779V388.77C400.779 390.486 399.843 391.812 397.815 391.812H396.84V396.414H400.311V405.345C400.311 409.05 402.651 411.273 406.395 411.273C407.916 411.273 408.852 411 409.32 410.805V406.515C409.047 406.593 408.345 406.671 407.721 406.671C406.239 406.671 405.459 406.125 405.459 404.448V396.414H409.32V391.812H405.459V386.079ZM417.507 418.41V409.128C418.443 410.415 420.393 411.468 423.045 411.468C428.466 411.468 432.093 407.178 432.093 401.367C432.093 395.673 428.856 391.383 423.24 391.383C420.354 391.383 418.209 392.67 417.351 394.152V391.812H412.32V418.41H417.507ZM426.984 401.406C426.984 404.838 424.878 406.827 422.226 406.827C419.574 406.827 417.429 404.799 417.429 401.406C417.429 398.013 419.574 396.024 422.226 396.024C424.878 396.024 426.984 398.013 426.984 401.406ZM433.819 405.657C434.053 407.841 436.042 411.585 441.814 411.585C446.845 411.585 449.263 408.387 449.263 405.267C449.263 402.459 447.352 400.158 443.569 399.378L440.839 398.793C439.786 398.598 439.084 398.013 439.084 397.077C439.084 395.985 440.176 395.166 441.541 395.166C443.725 395.166 444.544 396.609 444.7 397.74L449.029 396.765C448.795 394.698 446.962 391.227 441.502 391.227C437.368 391.227 434.326 394.074 434.326 397.506C434.326 400.197 436.003 402.42 439.708 403.239L442.243 403.824C443.725 404.136 444.31 404.838 444.31 405.696C444.31 406.71 443.491 407.607 441.775 407.607C439.513 407.607 438.382 406.203 438.265 404.682L433.819 405.657ZM451.942 407.802C451.942 409.713 453.502 411.273 455.452 411.273C457.402 411.273 458.962 409.713 458.962 407.802C458.962 405.852 457.402 404.292 455.452 404.292C453.502 404.292 451.942 405.852 451.942 407.802ZM451.903 395.049C451.903 396.96 453.463 398.52 455.413 398.52C457.363 398.52 458.923 396.96 458.923 395.049C458.923 393.099 457.363 391.539 455.413 391.539C453.463 391.539 451.903 393.099 451.903 395.049ZM479.314 383.349H474.595L461.101 411H465.781L479.314 383.349ZM490.255 383.349H485.536L472.042 411H476.722L490.255 383.349ZM489.543 405.657C489.777 407.841 491.766 411.585 497.538 411.585C502.569 411.585 504.987 408.387 504.987 405.267C504.987 402.459 503.076 400.158 499.293 399.378L496.563 398.793C495.51 398.598 494.808 398.013 494.808 397.077C494.808 395.985 495.9 395.166 497.265 395.166C499.449 395.166 500.268 396.609 500.424 397.74L504.753 396.765C504.519 394.698 502.686 391.227 497.226 391.227C493.092 391.227 490.05 394.074 490.05 397.506C490.05 400.197 491.727 402.42 495.432 403.239L497.967 403.824C499.449 404.136 500.034 404.838 500.034 405.696C500.034 406.71 499.215 407.607 497.499 407.607C495.237 407.607 494.106 406.203 493.989 404.682L489.543 405.657ZM520.576 411H525.529C525.451 410.337 525.334 409.011 525.334 407.529V391.812H520.147V402.966C520.147 405.189 518.821 406.749 516.52 406.749C514.102 406.749 513.01 405.033 513.01 402.888V391.812H507.823V403.941C507.823 408.114 510.475 411.507 515.116 411.507C517.144 411.507 519.367 410.727 520.42 408.933C520.42 409.713 520.498 410.61 520.576 411ZM541.171 391.734C540.781 391.695 540.391 391.656 539.962 391.656C538.324 391.656 535.672 392.124 534.502 394.659V391.812H529.471V411H534.658V402.225C534.658 398.091 536.959 396.804 539.611 396.804C540.079 396.804 540.586 396.843 541.171 396.96V391.734ZM553.054 387.054C553.912 387.054 554.419 387.171 554.692 387.249V382.881C554.263 382.686 553.21 382.491 552.118 382.491C547.867 382.491 545.137 385.299 545.137 389.628V391.812H541.939V396.258H545.137V411H550.363V396.258H554.692V391.812H550.363V389.706C550.363 387.561 551.884 387.054 553.054 387.054ZM555.627 405.657C555.861 407.841 557.85 411.585 563.622 411.585C568.653 411.585 571.071 408.387 571.071 405.267C571.071 402.459 569.16 400.158 565.377 399.378L562.647 398.793C561.594 398.598 560.892 398.013 560.892 397.077C560.892 395.985 561.984 395.166 563.349 395.166C565.533 395.166 566.352 396.609 566.508 397.74L570.837 396.765C570.603 394.698 568.77 391.227 563.31 391.227C559.176 391.227 556.134 394.074 556.134 397.506C556.134 400.197 557.811 402.42 561.516 403.239L564.051 403.824C565.533 404.136 566.118 404.838 566.118 405.696C566.118 406.71 565.299 407.607 563.583 407.607C561.321 407.607 560.19 406.203 560.073 404.682L555.627 405.657ZM579.288 399.729C579.405 397.623 580.692 395.985 582.876 395.985C585.372 395.985 586.425 397.662 586.425 399.807V411H591.612V398.91C591.612 394.698 589.35 391.305 584.475 391.305C582.642 391.305 580.536 391.929 579.288 393.411V382.764H574.101V411H579.288V399.729ZM594.423 405.774C594.423 408.777 596.919 411.546 601.014 411.546C603.861 411.546 605.694 410.22 606.669 408.699C606.669 409.44 606.747 410.493 606.864 411H611.622C611.505 410.337 611.388 408.972 611.388 407.958V398.52C611.388 394.659 609.126 391.227 603.042 391.227C597.894 391.227 595.125 394.542 594.813 397.545L599.415 398.52C599.571 396.843 600.819 395.4 603.081 395.4C605.265 395.4 606.318 396.531 606.318 397.896C606.318 398.559 605.967 399.105 604.875 399.261L600.156 399.963C596.958 400.431 594.423 402.342 594.423 405.774ZM602.106 407.685C600.429 407.685 599.61 406.593 599.61 405.462C599.61 403.98 600.663 403.239 601.989 403.044L606.318 402.381V403.239C606.318 406.632 604.29 407.685 602.106 407.685ZM627.07 391.734C626.68 391.695 626.29 391.656 625.861 391.656C624.223 391.656 621.571 392.124 620.401 394.659V391.812H615.37V411H620.557V402.225C620.557 398.091 622.858 396.804 625.51 396.804C625.978 396.804 626.485 396.843 627.07 396.96V391.734ZM647.923 391.812H641.137L634.507 398.949V382.764H629.32V411H634.507V405.93L636.652 403.668L641.722 411H648.079L640.24 399.885L647.923 391.812ZM649.039 407.724C649.039 409.674 650.638 411.273 652.588 411.273C654.577 411.273 656.176 409.674 656.176 407.724C656.176 405.774 654.577 404.175 652.588 404.175C650.638 404.175 649.039 405.774 649.039 407.724ZM668.359 396.024C670.933 396.024 672.142 397.662 672.61 399.261L677.251 397.701C676.432 394.464 673.468 391.227 668.242 391.227C662.665 391.227 658.297 395.478 658.297 401.406C658.297 407.295 662.743 411.585 668.398 411.585C673.507 411.585 676.51 408.309 677.368 405.111L672.805 403.59C672.376 405.072 671.05 406.827 668.398 406.827C665.746 406.827 663.484 404.877 663.484 401.406C663.484 397.935 665.707 396.024 668.359 396.024ZM688.86 406.866C686.325 406.866 683.985 404.994 683.985 401.406C683.985 397.779 686.325 395.946 688.86 395.946C691.395 395.946 693.735 397.779 693.735 401.406C693.735 405.033 691.395 406.866 688.86 406.866ZM688.86 391.227C683.127 391.227 678.798 395.478 678.798 401.406C678.798 407.295 683.127 411.585 688.86 411.585C694.593 411.585 698.922 407.295 698.922 401.406C698.922 395.478 694.593 391.227 688.86 391.227ZM707.065 411V399.768C707.065 397.662 708.391 395.985 710.653 395.985C712.993 395.985 714.046 397.545 714.046 399.612V411H719.194V399.768C719.194 397.701 720.52 395.985 722.743 395.985C725.122 395.985 726.136 397.545 726.136 399.612V411H731.167V398.559C731.167 393.411 727.774 391.266 724.225 391.266C721.69 391.266 719.662 392.124 718.141 394.464C717.166 392.397 715.06 391.266 712.447 391.266C710.341 391.266 707.884 392.28 706.831 394.152V391.812H701.878V411H707.065ZM751.636 383.349H746.917L733.423 411H738.103L751.636 383.349ZM759.226 411V382.764H754.039V411H759.226ZM767.438 399.222C767.555 397.467 769.037 395.439 771.728 395.439C774.692 395.439 775.94 397.311 776.018 399.222H767.438ZM776.525 404.214C775.901 405.93 774.575 407.139 772.157 407.139C769.583 407.139 767.438 405.306 767.321 402.771H781.049C781.049 402.693 781.127 401.913 781.127 401.172C781.127 395.01 777.578 391.227 771.65 391.227C766.736 391.227 762.212 395.205 762.212 401.328C762.212 407.802 766.853 411.585 772.118 411.585C776.837 411.585 779.879 408.816 780.854 405.501L776.525 404.214ZM783.017 405.774C783.017 408.777 785.513 411.546 789.608 411.546C792.455 411.546 794.288 410.22 795.263 408.699C795.263 409.44 795.341 410.493 795.458 411H800.216C800.099 410.337 799.982 408.972 799.982 407.958V398.52C799.982 394.659 797.72 391.227 791.636 391.227C786.488 391.227 783.719 394.542 783.407 397.545L788.009 398.52C788.165 396.843 789.413 395.4 791.675 395.4C793.859 395.4 794.912 396.531 794.912 397.896C794.912 398.559 794.561 399.105 793.469 399.261L788.75 399.963C785.552 400.431 783.017 402.342 783.017 405.774ZM790.7 407.685C789.023 407.685 788.204 406.593 788.204 405.462C788.204 403.98 789.257 403.239 790.583 403.044L794.912 402.381V403.239C794.912 406.632 792.884 407.685 790.7 407.685ZM815.664 391.734C815.274 391.695 814.884 391.656 814.455 391.656C812.817 391.656 810.165 392.124 808.995 394.659V391.812H803.964V411H809.151V402.225C809.151 398.091 811.452 396.804 814.104 396.804C814.572 396.804 815.079 396.843 815.664 396.96V391.734ZM823.101 399.963C823.101 397.74 824.427 395.985 826.689 395.985C829.185 395.985 830.238 397.662 830.238 399.807V411H835.425V398.91C835.425 394.698 833.241 391.305 828.483 391.305C826.416 391.305 824.115 392.202 822.945 394.191V391.812H817.914V411H823.101V399.963ZM855.903 383.349H851.184L837.69 411H842.37L855.903 383.349ZM868.812 391.812L864.639 404.136L861.09 391.812H855.63L861.753 411H867.018L871.425 397.896L875.91 411H881.097L887.103 391.812H881.955L878.406 404.175L874.272 391.812H868.812ZM894.43 399.729C894.547 397.623 895.834 395.985 898.018 395.985C900.514 395.985 901.567 397.662 901.567 399.807V411H906.754V398.91C906.754 394.698 904.492 391.305 899.617 391.305C897.784 391.305 895.678 391.929 894.43 393.411V382.764H889.243V411H894.43V399.729ZM909.565 405.774C909.565 408.777 912.061 411.546 916.156 411.546C919.003 411.546 920.836 410.22 921.811 408.699C921.811 409.44 921.889 410.493 922.006 411H926.764C926.647 410.337 926.53 408.972 926.53 407.958V398.52C926.53 394.659 924.268 391.227 918.184 391.227C913.036 391.227 910.267 394.542 909.955 397.545L914.557 398.52C914.713 396.843 915.961 395.4 918.223 395.4C920.407 395.4 921.46 396.531 921.46 397.896C921.46 398.559 921.109 399.105 920.017 399.261L915.298 399.963C912.1 400.431 909.565 402.342 909.565 405.774ZM917.248 407.685C915.571 407.685 914.752 406.593 914.752 405.462C914.752 403.98 915.805 403.239 917.131 403.044L921.46 402.381V403.239C921.46 406.632 919.432 407.685 917.248 407.685ZM937.106 386.079H932.426V388.77C932.426 390.486 931.49 391.812 929.462 391.812H928.487V396.414H931.958V405.345C931.958 409.05 934.298 411.273 938.042 411.273C939.563 411.273 940.499 411 940.967 410.805V406.515C940.694 406.593 939.992 406.671 939.368 406.671C937.886 406.671 937.106 406.125 937.106 404.448V396.414H940.967V391.812H937.106V386.079ZM955.042 401.718V397.116H943.732V401.718H955.042ZM964.131 411V391.812H958.944V411H964.131ZM958.32 385.533C958.32 387.249 959.763 388.692 961.518 388.692C963.312 388.692 964.716 387.249 964.716 385.533C964.716 383.739 963.312 382.296 961.518 382.296C959.763 382.296 958.32 383.739 958.32 385.533ZM966.961 405.657C967.195 407.841 969.184 411.585 974.956 411.585C979.987 411.585 982.405 408.387 982.405 405.267C982.405 402.459 980.494 400.158 976.711 399.378L973.981 398.793C972.928 398.598 972.226 398.013 972.226 397.077C972.226 395.985 973.318 395.166 974.683 395.166C976.867 395.166 977.686 396.609 977.842 397.74L982.171 396.765C981.937 394.698 980.104 391.227 974.644 391.227C970.51 391.227 967.468 394.074 967.468 397.506C967.468 400.197 969.145 402.42 972.85 403.239L975.385 403.824C976.867 404.136 977.452 404.838 977.452 405.696C977.452 406.71 976.633 407.607 974.917 407.607C972.655 407.607 971.524 406.203 971.407 404.682L966.961 405.657ZM996.511 401.718V397.116H985.201V401.718H996.511ZM1018.25 391.812H1012.79L1008.22 404.682L1003.47 391.812H997.773L1005.61 411H1010.8L1018.25 391.812ZM1025.57 418.41V409.128C1026.5 410.415 1028.45 411.468 1031.11 411.468C1036.53 411.468 1040.15 407.178 1040.15 401.367C1040.15 395.673 1036.92 391.383 1031.3 391.383C1028.42 391.383 1026.27 392.67 1025.41 394.152V391.812H1020.38V418.41H1025.57ZM1035.05 401.406C1035.05 404.838 1032.94 406.827 1030.29 406.827C1027.64 406.827 1025.49 404.799 1025.49 401.406C1025.49 398.013 1027.64 396.024 1030.29 396.024C1032.94 396.024 1035.05 398.013 1035.05 401.406ZM1048.35 399.963C1048.35 397.74 1049.68 395.985 1051.94 395.985C1054.44 395.985 1055.49 397.662 1055.49 399.807V411H1060.68V398.91C1060.68 394.698 1058.49 391.305 1053.74 391.305C1051.67 391.305 1049.37 392.202 1048.2 394.191V391.812H1043.17V411H1048.35V399.963Z" fill="#1F3C6A"/>
<path fill-rule="evenodd" clip-rule="evenodd" d="M282.244 378.039L278.359 378.039L278.359 370.27C278.359 359.55 269.659 350.849 258.938 350.849C248.218 350.849 239.517 359.55 239.517 370.27L239.517 378.039L235.633 378.039C231.36 378.039 227.864 381.535 227.864 385.807L227.864 424.65C227.864 428.923 231.36 432.419 235.633 432.419L282.244 432.419C286.516 432.419 290.012 428.923 290.012 424.65L290.012 385.807C290.012 381.535 286.516 378.039 282.244 378.039ZM258.938 412.997C263.211 412.997 266.707 409.501 266.707 405.229C266.707 400.956 263.211 397.46 258.938 397.46C254.665 397.46 251.17 400.956 251.17 405.229C251.17 409.501 254.665 412.997 258.938 412.997ZM258.938 358.229C252.296 358.229 246.897 363.628 246.897 370.27L246.897 378.039L270.979 378.039L270.979 370.27C270.979 363.628 265.58 358.229 258.938 358.229Z" fill="white"/>
<path d="M266.432 181.384V170.016H272.536C276.4 170.016 278.752 172.2 278.752 175.728C278.752 179.144 276.4 181.384 272.536 181.384H266.432ZM273.488 188.048C281.328 188.048 286.536 182.896 286.536 175.672C286.536 168.504 281.328 163.296 273.488 163.296H258.648V203H266.376V188.048H273.488ZM306.561 175.336C306.001 175.28 305.441 175.224 304.825 175.224C302.473 175.224 298.665 175.896 296.985 179.536V175.448H289.761V203H297.209V190.4C297.209 184.464 300.513 182.616 304.321 182.616C304.993 182.616 305.721 182.672 306.561 182.84V175.336ZM322.232 197.064C318.592 197.064 315.232 194.376 315.232 189.224C315.232 184.016 318.592 181.384 322.232 181.384C325.872 181.384 329.232 184.016 329.232 189.224C329.232 194.432 325.872 197.064 322.232 197.064ZM322.232 174.608C314 174.608 307.784 180.712 307.784 189.224C307.784 197.68 314 203.84 322.232 203.84C330.464 203.84 336.68 197.68 336.68 189.224C336.68 180.712 330.464 174.608 322.232 174.608ZM350.229 167.216H343.509V171.08C343.509 173.544 342.165 175.448 339.253 175.448H337.853V182.056H342.837V194.88C342.837 200.2 346.197 203.392 351.573 203.392C353.757 203.392 355.101 203 355.773 202.72V196.56C355.381 196.672 354.373 196.784 353.477 196.784C351.349 196.784 350.229 196 350.229 193.592V182.056H355.773V175.448H350.229V167.216ZM372.575 197.064C368.935 197.064 365.575 194.376 365.575 189.224C365.575 184.016 368.935 181.384 372.575 181.384C376.215 181.384 379.575 184.016 379.575 189.224C379.575 194.432 376.215 197.064 372.575 197.064ZM372.575 174.608C364.343 174.608 358.127 180.712 358.127 189.224C358.127 197.68 364.343 203.84 372.575 203.84C380.807 203.84 387.023 197.68 387.023 189.224C387.023 180.712 380.807 174.608 372.575 174.608ZM404.035 181.496C407.731 181.496 409.467 183.848 410.139 186.144L416.803 183.904C415.627 179.256 411.371 174.608 403.867 174.608C395.859 174.608 389.587 180.712 389.587 189.224C389.587 197.68 395.971 203.84 404.091 203.84C411.427 203.84 415.739 199.136 416.971 194.544L410.419 192.36C409.803 194.488 407.899 197.008 404.091 197.008C400.283 197.008 397.035 194.208 397.035 189.224C397.035 184.24 400.227 181.496 404.035 181.496ZM433.473 197.064C429.833 197.064 426.473 194.376 426.473 189.224C426.473 184.016 429.833 181.384 433.473 181.384C437.113 181.384 440.473 184.016 440.473 189.224C440.473 194.432 437.113 197.064 433.473 197.064ZM433.473 174.608C425.241 174.608 419.025 180.712 419.025 189.224C419.025 197.68 425.241 203.84 433.473 203.84C441.705 203.84 447.921 197.68 447.921 189.224C447.921 180.712 441.705 174.608 433.473 174.608ZM459.613 203V162.456H452.165V203H459.613Z" fill="#1F3C6A"/>
<path d="M838.416 172.76C837.52 168.28 833.824 162.456 824.192 162.456C816.688 162.456 810.36 167.832 810.36 174.888C810.36 180.88 814.448 184.968 820.776 186.256L826.32 187.376C829.4 187.992 831.136 189.784 831.136 192.08C831.136 194.88 828.84 196.952 824.696 196.952C819.096 196.952 816.352 193.424 816.016 189.504L808.848 191.408C809.464 197.064 814.112 203.84 824.64 203.84C833.88 203.84 838.976 197.68 838.976 191.576C838.976 185.976 835.112 181.272 827.888 179.872L822.344 178.808C819.432 178.248 818.032 176.512 818.032 174.328C818.032 171.696 820.496 169.288 824.248 169.288C829.288 169.288 831.08 172.704 831.472 174.888L838.416 172.76ZM861.121 203H868.233C868.121 202.048 867.953 200.144 867.953 198.016V175.448H860.505V191.464C860.505 194.656 858.601 196.896 855.297 196.896C851.825 196.896 850.257 194.432 850.257 191.352V175.448H842.809V192.864C842.809 198.856 846.617 203.728 853.281 203.728C856.193 203.728 859.385 202.608 860.897 200.032C860.897 201.152 861.009 202.44 861.121 203ZM881.117 203V199.64C882.573 201.992 885.485 203.672 889.293 203.672C897.133 203.672 902.285 197.456 902.285 189.112C902.285 180.936 897.637 174.72 889.573 174.72C885.485 174.72 882.461 176.512 881.229 178.472V162.456H873.893V203H881.117ZM894.837 189.168C894.837 194.208 891.813 197.008 888.005 197.008C884.253 197.008 881.117 194.152 881.117 189.168C881.117 184.128 884.253 181.384 888.005 181.384C891.813 181.384 894.837 184.128 894.837 189.168ZM920.006 168.616C921.238 168.616 921.966 168.784 922.358 168.896V162.624C921.742 162.344 920.23 162.064 918.662 162.064C912.558 162.064 908.638 166.096 908.638 172.312V175.448H904.046V181.832H908.638V203H916.142V181.832H922.358V175.448H916.142V172.424C916.142 169.344 918.326 168.616 920.006 168.616ZM937.879 197.064C934.239 197.064 930.879 194.376 930.879 189.224C930.879 184.016 934.239 181.384 937.879 181.384C941.519 181.384 944.879 184.016 944.879 189.224C944.879 194.432 941.519 197.064 937.879 197.064ZM937.879 174.608C929.647 174.608 923.431 180.712 923.431 189.224C923.431 197.68 929.647 203.84 937.879 203.84C946.111 203.84 952.327 197.68 952.327 189.224C952.327 180.712 946.111 174.608 937.879 174.608ZM964.02 203V162.456H956.572V203H964.02ZM996.587 162.456H989.251V178.192C988.467 176.736 986.227 174.776 981.467 174.776C973.683 174.776 968.251 181.104 968.251 189.168C968.251 197.512 973.851 203.672 981.691 203.672C985.387 203.672 988.187 201.992 989.419 199.808C989.419 201.096 989.587 202.44 989.699 203H996.811C996.699 201.88 996.587 199.864 996.587 198.016V162.456ZM975.755 189.168C975.755 184.24 978.779 181.44 982.587 181.44C986.395 181.44 989.363 184.184 989.363 189.112C989.363 194.096 986.395 197.008 982.587 197.008C978.667 197.008 975.755 194.096 975.755 189.168ZM1008.42 186.088C1008.59 183.568 1010.72 180.656 1014.58 180.656C1018.84 180.656 1020.63 183.344 1020.74 186.088H1008.42ZM1021.47 193.256C1020.57 195.72 1018.67 197.456 1015.2 197.456C1011.5 197.456 1008.42 194.824 1008.25 191.184H1027.96C1027.96 191.072 1028.08 189.952 1028.08 188.888C1028.08 180.04 1022.98 174.608 1014.47 174.608C1007.41 174.608 1000.92 180.32 1000.92 189.112C1000.92 198.408 1007.58 203.84 1015.14 203.84C1021.92 203.84 1026.28 199.864 1027.68 195.104L1021.47 193.256ZM1049.21 175.336C1048.65 175.28 1048.09 175.224 1047.48 175.224C1045.13 175.224 1041.32 175.896 1039.64 179.536V175.448H1032.41V203H1039.86V190.4C1039.86 184.464 1043.17 182.616 1046.97 182.616C1047.65 182.616 1048.37 182.672 1049.21 182.84V175.336Z" fill="#1F3C6A"/>
<path d="M551.376 195.832V170.464H557.592C564.088 170.464 569.464 174.552 569.464 183.176C569.464 191.8 564.032 195.832 557.536 195.832H551.376ZM557.816 203C569.128 203 577.472 195.72 577.472 183.176C577.472 170.632 569.184 163.296 557.872 163.296H543.648V203H557.816ZM594.802 197.064C591.162 197.064 587.802 194.376 587.802 189.224C587.802 184.016 591.162 181.384 594.802 181.384C598.442 181.384 601.802 184.016 601.802 189.224C601.802 194.432 598.442 197.064 594.802 197.064ZM594.802 174.608C586.57 174.608 580.354 180.712 580.354 189.224C580.354 197.68 586.57 203.84 594.802 203.84C603.034 203.84 609.25 197.68 609.25 189.224C609.25 180.712 603.034 174.608 594.802 174.608ZM620.943 203V186.872C620.943 183.848 622.847 181.44 626.095 181.44C629.455 181.44 630.967 183.68 630.967 186.648V203H638.359V186.872C638.359 183.904 640.263 181.44 643.455 181.44C646.871 181.44 648.327 183.68 648.327 186.648V203H655.551V185.136C655.551 177.744 650.679 174.664 645.583 174.664C641.943 174.664 639.031 175.896 636.847 179.256C635.447 176.288 632.423 174.664 628.671 174.664C625.647 174.664 622.119 176.12 620.607 178.808V175.448H613.495V203H620.943ZM659.574 195.496C659.574 199.808 663.158 203.784 669.038 203.784C673.126 203.784 675.758 201.88 677.158 199.696C677.158 200.76 677.27 202.272 677.438 203H684.27C684.102 202.048 683.934 200.088 683.934 198.632V185.08C683.934 179.536 680.686 174.608 671.95 174.608C664.558 174.608 660.582 179.368 660.134 183.68L666.742 185.08C666.966 182.672 668.758 180.6 672.006 180.6C675.142 180.6 676.654 182.224 676.654 184.184C676.654 185.136 676.15 185.92 674.582 186.144L667.806 187.152C663.214 187.824 659.574 190.568 659.574 195.496ZM670.606 198.24C668.198 198.24 667.022 196.672 667.022 195.048C667.022 192.92 668.534 191.856 670.438 191.576L676.654 190.624V191.856C676.654 196.728 673.742 198.24 670.606 198.24ZM697.098 203V175.448H689.65V203H697.098ZM688.754 166.432C688.754 168.896 690.826 170.968 693.346 170.968C695.922 170.968 697.938 168.896 697.938 166.432C697.938 163.856 695.922 161.784 693.346 161.784C690.826 161.784 688.754 163.856 688.754 166.432ZM710.458 187.152C710.458 183.96 712.362 181.44 715.61 181.44C719.194 181.44 720.706 183.848 720.706 186.928V203H728.154V185.64C728.154 179.592 725.018 174.72 718.186 174.72C715.218 174.72 711.914 176.008 710.234 178.864V175.448H703.01V203H710.458V187.152Z" fill="#1F3C6A"/>
<path d="M375.5 218.5C375.5 217.119 374.381 216 373 216C371.619 216 370.5 217.119 370.5 218.5L375.5 218.5ZM373 376L387.434 351H358.566L373 376ZM370.5 218.5L370.5 353.5H375.5L375.5 218.5L370.5 218.5Z" fill="#1BB4B7"/>
<path d="M635 219.5C635 218.119 633.881 217 632.5 217C631.119 217 630 218.119 630 219.5L635 219.5ZM632.5 376.5L646.934 351.5L618.066 351.5L632.5 376.5ZM630 219.5L630 354L635 354L635 219.5L630 219.5Z" fill="#FF4C64"/>
<path d="M953.573 219.5C953.573 218.119 952.454 217 951.073 217C949.692 217 948.573 218.119 948.573 219.5L953.573 219.5ZM951.073 376.5L965.507 351.5L936.639 351.5L951.073 376.5ZM948.573 219.5L948.573 354L953.573 354L953.573 219.5L948.573 219.5Z" fill="#178A9E"/>
<path d="M362 424L471 424" stroke="#1BB4B7" stroke-width="7" stroke-linecap="round"/>
<path d="M486 424H739" stroke="#FF4C64" stroke-width="7" stroke-linecap="round"/>
<path d="M751 424L1065 424" stroke="#178A9E" stroke-width="7" stroke-linecap="round"/>
</svg>
